PathFileType	4	(X/Y/Z)	s04c0001.trc
DataRate	CameraRate	NumFrames	NumMarkers	Units	OrigDataRate	OrigDataStartFrame	OrigNumFrames
200	200	7	49	mm	200	500	2000
Frame#	Time	racr			lacr			c7			jug			rlel			rdr			llel			ldr			s2			lic			ric			lasi			rasi			rpsi			lpsi			rgt			lgt			rth1			rth2			rth3			rth4			rlfc			rmfc			rsh1			rsh2			rsh3			rsh4			rlmal			rmmal			rcal			rtoe			rmt5			rmt1			lth1			lth2			lth4			lth3			llfc			lmfc			lsh1			lsh2			lsh3			lsh4			llmal			lmmal			lcal			ltoe			lmt1			lmt5			
		X1	Y1	Z1	X2	Y2	Z2	X3	Y3	Z3	X4	Y4	Z4	X5	Y5	Z5	X6	Y6	Z6	X7	Y7	Z7	X8	Y8	Z8	X9	Y9	Z9	X10	Y10	Z10	X11	Y11	Z11	X12	Y12	Z12	X13	Y13	Z13	X14	Y14	Z14	X15	Y15	Z15	X16	Y16	Z16	X17	Y17	Z17	X18	Y18	Z18	X19	Y19	Z19	X20	Y20	Z20	X21	Y21	Z21	X22	Y22	Z22	X23	Y23	Z23	X24	Y24	Z24	X25	Y25	Z25	X26	Y26	Z26	X27	Y27	Z27	X28	Y28	Z28	X29	Y29	Z29	X30	Y30	Z30	X31	Y31	Z31	X32	Y32	Z32	X33	Y33	Z33	X34	Y34	Z34	X35	Y35	Z35	X36	Y36	Z36	X37	Y37	Z37	X38	Y38	Z38	X39	Y39	Z39	X40	Y40	Z40	X41	Y41	Z41	X42	Y42	Z42	X43	Y43	Z43	X44	Y44	Z44	X45	Y45	Z45	X46	Y46	Z46	X47	Y47	Z47	X48	Y48	Z48	X49	Y49	Z49	
500	2.5000	166.583908	1557.060181	284.639435	194.066513	1556.316162	-79.704552	118.853989	1590.055542	86.288918	250.371246	1525.236816	100.482361	91.067665	1215.934570	375.234497	202.730179	974.279602	485.354858	156.103958	1241.539429	-193.708694	297.674133	986.189270	-277.803589	63.952454	1053.848755	97.879379	238.740067	1110.816650	-49.188164	199.992859	1101.049683	274.033173	286.104126	1055.682861	5.171738	267.057617	1059.984375	232.851547	80.690918	1088.807983	142.015747	82.679008	1084.549194	63.251511	165.799454	1000.854370	278.058258	189.250046	955.508606	-66.817398	180.548141	865.608337	299.696655	195.177322	778.998657	290.304871	167.932220	698.864807	280.162750	231.155991	778.184753	280.330750	153.688141	547.937500	249.973282	161.254501	525.546936	139.841537	105.259483	425.607330	268.389038	121.429344	336.153046	260.053589	88.553093	257.025970	243.228516	157.534775	335.469177	245.937302	89.127487	103.164413	231.656677	138.438965	111.403458	159.460022	48.171345	68.265404	168.132080	314.034027	83.366264	304.779999	232.186279	52.810478	326.701660	279.354126	49.964104	227.720749	192.565796	862.204468	-79.921242	211.904144	777.379211	-77.863480	247.224228	775.976929	-67.749290	185.659668	692.449219	-72.289330	164.775467	551.760437	-53.641624	190.584595	521.852600	50.715916	148.481613	423.650299	-80.333870	170.926559	339.771698	-67.831841	147.473022	253.930023	-67.500664	200.231949	341.236664	-41.677937	146.796402	104.545387	-63.810925	154.843460	100.130547	22.046295	80.135986	77.282173	-14.598307	376.942474	82.984451	-57.742542	312.812805	55.052311	-0.009114	302.212891	43.179150	-111.017143	
501	2.5050	166.597275	1557.063843	284.627411	194.087692	1556.333374	-79.718811	118.853958	1590.054321	86.290047	250.395370	1525.257324	100.471397	91.108368	1215.921143	375.228851	202.775833	974.308167	485.380005	156.116577	1241.565430	-193.725616	297.698059	986.210266	-277.846954	63.927223	1053.915771	97.788162	238.723602	1110.794800	-49.189793	199.995651	1101.053711	274.033569	286.097687	1055.687378	5.186587	267.042847	1059.956177	232.826172	80.691269	1088.815552	142.018692	82.678299	1084.551270	63.263676	165.841904	1000.847839	278.056488	189.271988	955.509827	-66.814774	180.549469	865.610046	299.693359	195.193390	778.890198	290.001434	167.929596	698.862122	280.162415	231.113449	778.245239	280.231354	153.692841	547.926331	249.981339	161.261597	525.560425	139.845947	105.263321	425.619141	268.398743	121.424248	336.145050	260.040253	88.545120	257.015717	243.227936	157.534698	335.469971	245.923325	89.145126	103.157669	231.656311	138.434418	111.412102	159.446304	48.168491	68.262573	168.128616	314.038025	83.357674	304.789215	232.173431	52.803356	326.695435	279.360565	49.976959	227.719604	192.578796	862.205811	-79.922440	211.931763	777.357910	-77.840263	247.232910	776.001953	-67.751740	185.675003	692.437927	-72.284157	164.772964	551.764099	-53.644737	190.566986	521.862305	50.729950	148.480927	423.651581	-80.327606	170.928986	339.764709	-67.832352	147.480286	253.916718	-67.504501	200.230011	341.242706	-41.687744	146.790482	104.540710	-63.810619	154.824448	100.139915	22.061808	80.134048	77.284637	-14.585520	376.935822	82.974831	-57.755192	312.825073	55.049171	-0.008781	302.213806	43.180862	-111.021965	
502	2.5100	166.616394	1557.084595	284.629303	194.095703	1556.342163	-79.729828	118.848961	1590.073486	86.301918	250.423477	1525.249756	100.450623	91.132896	1215.942017	375.214966	202.801941	974.325378	485.404816	156.146774	1241.588989	-193.751709	297.722565	986.229919	-277.876740	63.927597	1053.916992	97.795532	238.751266	1110.800537	-49.184193	200.015778	1101.053711	274.037659	286.109253	1055.682251	5.185554	267.052063	1059.959229	232.817596	80.712364	1088.798340	142.039001	82.690689	1084.544434	63.269264	165.830170	1000.856873	278.067627	189.280014	955.503479	-66.803345	180.542725	865.616272	299.698334	195.195984	778.903137	290.009796	167.936417	698.867249	280.189209	231.110092	778.245850	280.237885	153.667923	547.952026	249.986359	161.265411	525.552185	139.848251	105.253365	425.614197	268.398987	121.433388	336.152863	260.046936	88.543518	257.016205	243.224823	157.517151	335.481995	245.940094	89.144722	103.157936	231.656631	138.433044	111.408592	159.456741	48.169250	68.258675	168.138229	314.037231	83.359001	304.785522	232.174377	52.813618	326.702698	279.348633	49.975632	227.725372	192.071808	862.171509	-80.051735	211.913803	777.373901	-77.863670	247.229630	775.979614	-67.749855	185.675018	692.437927	-72.284164	164.777756	551.735352	-53.633251	190.559769	521.860596	50.724625	148.464691	423.654083	-80.331268	170.937317	339.773224	-67.839516	147.474655	253.927917	-67.498680	200.233261	341.245972	-41.696419	146.798157	104.543602	-63.810314	154.824020	100.140160	22.062130	80.143669	77.285606	-14.596979	376.931702	82.983902	-57.738083	312.822052	55.057678	-0.006590	302.213043	43.182903	-111.008377	
503	2.5150	166.624023	1557.080688	284.615112	194.112518	1556.347534	-79.748444	118.857635	1590.060547	86.279045	250.437332	1525.265747	100.456696	91.161484	1215.929565	375.190521	202.862839	974.343933	485.427979	156.181549	1241.600586	-193.771851	297.758484	986.247986	-277.901855	63.928837	1053.871704	97.815704	238.755386	1110.801514	-49.183716	200.035278	1101.061768	274.040192	286.147583	1055.671021	5.178475	267.071564	1059.961182	232.819565	80.721657	1088.808838	142.034119	82.703667	1084.547363	63.264637	165.833862	1000.849121	278.067169	189.295563	955.502136	-66.807419	180.545837	865.610718	299.697968	195.153229	779.001709	290.314941	167.926697	698.864380	280.177032	231.165039	778.179504	280.346191	153.680313	547.939880	249.981979	161.273560	525.543030	139.837723	105.262978	425.618988	268.399323	121.417336	336.152496	260.045471	88.542854	257.021362	243.225281	157.522858	335.486084	245.953064	89.141129	103.154884	231.656235	138.448212	111.415619	159.445877	48.165260	68.268097	168.120239	314.035706	83.365410	304.786865	232.192322	52.784012	326.701874	279.338196	49.982086	227.726196	192.084412	862.173401	-80.046844	211.931763	777.357910	-77.840271	247.257401	775.996399	-67.726929	185.678284	692.450684	-72.299225	164.782166	551.757385	-53.640095	190.562607	521.863708	50.738461	148.473038	423.646790	-80.336365	170.919815	339.762085	-67.828629	147.474136	253.921402	-67.496338	200.235138	341.239166	-41.697014	146.812744	104.530556	-63.819527	154.829147	100.122902	22.053995	80.137970	77.288971	-14.585005	376.931702	82.983932	-57.738068	312.826416	55.043259	-0.015176	302.195099	43.172268	-111.035011	
504	2.5200	166.636017	1557.096680	284.608734	194.129745	1556.372070	-79.764389	118.881348	1590.072021	86.254021	250.463608	1525.270508	100.431976	91.178688	1215.939575	375.170441	202.893768	974.380005	485.486450	156.221466	1241.635376	-193.795151	297.803467	986.270752	-277.908936	63.978622	1053.844971	97.869331	238.757614	1110.771729	-49.177601	200.038422	1101.058350	274.042328	286.133606	1055.666260	5.197740	267.070862	1059.951416	232.831848	80.737450	1088.807129	142.040543	82.705444	1084.541870	63.274956	165.831680	1000.850525	278.067566	189.294342	955.506836	-66.793213	180.532211	865.614807	299.685944	195.176132	778.906311	290.007812	167.920807	698.861816	280.180634	231.106171	778.247742	280.244507	153.672928	547.932373	249.972855	161.265396	525.552185	139.848267	105.259201	425.616364	268.392120	121.402191	336.150452	260.048065	88.541420	257.038574	243.233383	157.523117	335.484497	245.944092	89.137489	103.176559	231.652756	138.452133	111.411507	159.456161	48.175640	68.258911	168.126541	314.028931	83.366150	304.783417	232.198746	52.817120	326.701263	279.355774	49.972874	227.722794	192.082626	862.175232	-80.043617	211.942902	777.361755	-77.854530	247.246155	775.989746	-67.765900	185.673340	692.443665	-72.286201	164.779694	551.745178	-53.629562	190.591003	521.858521	50.730766	148.486069	423.651031	-80.325836	170.940491	339.781342	-67.838448	147.479996	253.929153	-67.507370	200.240341	341.246857	-41.668266	146.797562	104.546005	-63.825188	154.811447	100.128258	22.053602	80.128853	77.287659	-14.586595	376.927338	82.978821	-57.729843	312.823822	55.033577	-0.014464	302.212585	43.179794	-111.006279	
505	2.5250	166.649719	1557.112549	284.597565	194.136215	1556.384766	-79.751060	118.868622	1590.076904	86.248322	250.472656	1525.288574	100.424347	91.198257	1215.947388	375.178467	202.944672	974.395020	485.522919	156.256897	1241.657104	-193.822342	297.837555	986.297546	-277.941193	63.936172	1053.871216	97.829185	238.760635	1110.774780	-49.182625	200.055862	1101.061890	274.060242	286.141724	1055.665894	5.193122	267.082794	1059.945312	232.812668	80.734825	1088.815918	142.034714	82.704109	1084.548462	63.272011	165.831345	1000.870605	278.065399	189.284210	955.508667	-66.805244	180.546875	865.615295	299.693359	195.168304	778.981689	290.309967	167.925934	698.868713	280.189026	231.170700	778.179565	280.373108	153.683578	547.935608	249.970612	161.263794	525.545593	139.837723	105.256226	425.628845	268.402344	121.409790	336.142914	260.042725	88.531670	257.028809	243.230469	157.515656	335.473053	245.937759	89.136589	103.154427	231.665573	138.444153	111.412071	159.450272	48.170158	68.261032	168.120819	314.035492	83.353195	304.785339	232.195023	52.811302	326.701843	279.358948	49.985649	227.724442	192.073593	862.180786	-80.042999	211.910583	777.363770	-77.863487	247.246048	775.989014	-67.766014	185.687836	692.444153	-72.283981	164.791245	551.758179	-53.627575	190.581375	521.851440	50.750690	148.487183	423.646667	-80.331947	170.938675	339.768066	-67.823914	147.476212	253.921875	-67.489357	200.233292	341.249329	-41.692245	146.796219	104.545563	-63.810883	154.833450	100.127495	22.036213	80.125885	77.286301	-14.583773	376.931519	82.982384	-57.743416	312.816986	55.043392	-0.015115	302.216675	43.182758	-111.020210	
506	2.5300	166.661194	1557.111938	284.599426	194.153061	1556.406616	-79.756935	118.864799	1590.079956	86.276573	250.476608	1525.294800	100.418961	91.235390	1215.959106	375.142029	202.985123	974.419800	485.571747	156.270844	1241.686890	-193.857712	297.855530	986.322693	-277.957947	63.947327	1053.880615	97.834030	238.779633	1110.771362	-49.165493	200.065552	1101.057251	274.037689	286.145966	1055.667969	5.193298	267.075806	1059.955200	232.831543	80.734833	1088.815918	142.034683	82.722038	1084.546753	63.280502	165.872192	1000.846741	278.074188	189.309875	955.503235	-66.801231	180.536224	865.619080	299.684875	195.188782	778.897522	290.029114	167.926178	698.875549	280.194611	231.089478	778.253357	280.248993	153.677826	547.945801	249.984207	161.273132	525.554993	139.840561	105.258606	425.618530	268.395386	121.417328	336.152069	260.045502	88.543091	257.029144	243.218521	157.520859	335.481628	245.943848	89.139069	103.169022	231.647171	138.445160	111.409157	159.451492	48.165894	68.267548	168.126419	314.047302	83.355713	304.786987	232.172699	52.806122	326.706543	279.356506	49.974014	227.720062	192.084091	862.180786	-80.038025	211.931763	777.357910	-77.840279	247.250916	775.996765	-67.765305	185.674774	692.437805	-72.284309	164.783218	551.756409	-53.635670	190.576691	521.868591	50.748371	148.482361	423.645630	-80.319740	170.933762	339.769867	-67.823235	147.478546	253.921204	-67.497444	200.233215	341.249298	-41.692245	146.796173	104.545593	-63.810867	154.813995	100.159821	22.060747	80.130638	77.290382	-14.586777	376.943237	82.974991	-57.737923	312.824768	55.052135	-0.014472	302.218750	43.209148	-111.014862	
